<svg id="Layer_1" data-name="Layer 1" xmlns="http://www.w3.org/2000/svg" viewBox="0 0 383.25 383.25"><defs><style>.cls-1{fill:#7cc242}.cls-2{fill:none}.cls-3{clip-path:url(#clip-path)}.cls-4{fill:#f69323}.cls-5{clip-path:url(#clip-path-2)}.cls-6{fill:#4dc6db}.cls-7{fill:#23b578}.cls-8{fill:#fccbae}.cls-9{fill:#171615}.cls-10{fill:#b2832c}.cls-11{fill:#21231b}.cls-12{fill:#e1f2ee}.cls-13{fill:#161715}.cls-14{clip-path:url(#clip-path-3)}.cls-15{fill:#03505e}.cls-16{fill:#34421b}.cls-17{clip-path:url(#clip-path-4)}.cls-18{fill:#e2e290}.cls-19{fill:#ee8622}.cls-20{fill:#9b674e}.cls-21{fill:#3f2a2a}.cls-22{clip-path:url(#clip-path-5)}.cls-23{fill:#f47721}.cls-24{fill:#ddebed}.cls-25{clip-path:url(#clip-path-6)}.cls-26{fill:#e1a4c7}.cls-27{fill:#ddd934}.cls-28{clip-path:url(#clip-path-7)}.cls-29{fill:#6d6161}.cls-30{fill:#070808}.cls-31{clip-path:url(#clip-path-8)}.cls-32{fill:#30b184}.cls-33{fill:#547dbf}.cls-34{fill:#fadacf}.cls-35{fill:#cc8e38}.cls-36{fill:#961b1e}.cls-37{fill:#fff}</style><clipPath id="clip-path"><circle class="cls-1" cx="191.63" cy="191.63" r="191.63"/></clipPath><clipPath id="clip-path-2"><circle class="cls-2" cx="120.33" cy="74.11" r="57.64"/></clipPath><clipPath id="clip-path-3"><circle class="cls-2" cx="334.74" cy="202.83" r="57.64"/></clipPath><clipPath id="clip-path-4"><circle class="cls-2" cx="269.87" cy="74.11" r="57.64"/></clipPath><clipPath id="clip-path-5"><circle class="cls-2" cx="131.7" cy="322.76" r="57.64"/></clipPath><clipPath id="clip-path-6"><circle class="cls-2" cx="69.28" cy="202.83" r="57.64"/></clipPath><clipPath id="clip-path-7"><circle class="cls-2" cx="202.01" cy="202.83" r="57.64"/></clipPath><clipPath id="clip-path-8"><circle class="cls-2" cx="265.1" cy="317.65" r="57.64"/></clipPath></defs><title>Artboard 1</title><circle class="cls-1" cx="191.63" cy="191.63" r="191.63"/><g class="cls-3"><circle class="cls-4" cx="191.63" cy="191.63" r="191.63"/><g class="cls-5"><circle class="cls-6" cx="120.33" cy="74.11" r="57.64"/><rect class="cls-7" x="94.42" y="85.93" width="52.33" height="66.88" rx="16.66" ry="16.66"/><path class="cls-7" d="M89.18 165.67v-45a25.06 25.06 0 0 1 25-25h14.41a25.06 25.06 0 0 1 25 25v45h7.56v-45a32.63 32.63 0 0 0-32.59-32.59h-14.35a32.63 32.63 0 0 0-32.59 32.59v45z"/><rect class="cls-8" x="114.45" y="76.41" width="11.66" height="16.92" rx="3.71" ry="3.71"/><circle class="cls-8" cx="120.32" cy="62.82" r="23.11"/><circle class="cls-8" cx="94.75" cy="65.82" r="5.19"/><circle class="cls-8" cx="145.81" cy="65.82" r="5.19"/><path class="cls-9" d="M120.28 76.74a3.7 3.7 0 0 1-3.7-3.7.45.45 0 0 1 .9 0 2.79 2.79 0 0 0 5.59 0 .45.45 0 0 1 .9 0 3.7 3.7 0 0 1-3.69 3.7zm4.15-11.13a.9.9 0 0 1-.9-.9c0-1.27-1.49-2.34-3.25-2.34S117 63.44 117 64.71a.9.9 0 1 1-1.8 0c0-2.29 2.27-4.15 5.05-4.15s5.05 1.86 5.05 4.15a.9.9 0 0 1-.87.9z"/><path class="cls-10" d="M120.43 42.57a23.61 23.61 0 0 1 23.22 19.7 24 24 0 0 0 .34-4 23.56 23.56 0 1 0-47.12 0 24 24 0 0 0 .34 4 23.61 23.61 0 0 1 23.22-19.7z"/><rect class="cls-10" x="117.81" y="34.52" width="30.68" height="13.54" rx="4.31" ry="4.31"/><rect class="cls-11" x="108.74" y="61.89" width="2.11" height="2.11" rx=".67" ry=".67"/><rect class="cls-11" x="129.8" y="61.89" width="2.11" height="2.11" rx=".67" ry=".67"/><path class="cls-10" d="M109.24 41.29s.15 6.77 18.35 6.77v-9.48z"/><rect class="cls-10" x="119.89" y="32.02" width="17.13" height="5.26" rx="1.68" ry="1.68" transform="rotate(-14.2 128.414 34.665)"/><circle class="cls-12" cx="110.89" cy="62.79" r="5.72"/><path class="cls-13" d="M110.89 69.26a6.47 6.47 0 1 1 6.47-6.47 6.47 6.47 0 0 1-6.47 6.47zm0-11.43a5 5 0 1 0 5 5 5 5 0 0 0-5-5z"/><circle class="cls-12" cx="129.69" cy="62.79" r="5.72"/><path class="cls-13" d="M129.69 69.26a6.47 6.47 0 1 1 6.47-6.47 6.47 6.47 0 0 1-6.47 6.47zm0-11.43a5 5 0 1 0 5 5 5 5 0 0 0-5-5z"/></g><g class="cls-14"><circle class="cls-6" cx="334.74" cy="202.83" r="57.64"/><rect class="cls-15" x="308.83" y="214.64" width="52.33" height="66.88" rx="16.66" ry="16.66"/><path class="cls-15" d="M303.58 294.39v-45a25.06 25.06 0 0 1 25-25H343a25.06 25.06 0 0 1 25 25v45h7.56v-45A32.63 32.63 0 0 0 343 216.81h-14.38A32.63 32.63 0 0 0 296 249.4v45z"/><rect class="cls-8" x="328.86" y="205.12" width="11.66" height="16.92" rx="3.71" ry="3.71"/><circle class="cls-8" cx="334.73" cy="191.53" r="23.11"/><circle class="cls-8" cx="311.53" cy="194.84" r="4.45"/><circle class="cls-8" cx="358.15" cy="194.84" r="4.45"/><path class="cls-9" d="M334.69 204a3.7 3.7 0 0 1-3.7-3.7.45.45 0 0 1 .9 0 2.79 2.79 0 0 0 5.59 0 .45.45 0 0 1 .9 0 3.7 3.7 0 0 1-3.69 3.7z"/><path class="cls-16" d="M334.69 171.28A23.71 23.71 0 0 1 358.06 191a23.71 23.71 0 1 0-46.73 0 23.71 23.71 0 0 1 23.36-19.72z"/><rect class="cls-16" x="330.72" y="163.23" width="24.97" height="13.54" rx="4.31" ry="4.31"/><rect class="cls-11" x="323.15" y="190.61" width="2.11" height="2.11" rx=".67" ry=".67"/><rect class="cls-11" x="344.21" y="190.61" width="2.11" height="2.11" rx=".67" ry=".67"/></g><g class="cls-17"><circle class="cls-18" cx="269.87" cy="74.11" r="57.64"/><rect class="cls-19" x="243.95" y="85.93" width="52.33" height="66.88" rx="16.66" ry="16.66"/><path class="cls-19" d="M238.71 165.67v-45a25.06 25.06 0 0 1 25-25h14.41a25.06 25.06 0 0 1 25 25v45h7.56v-45a32.63 32.63 0 0 0-32.59-32.59h-14.35a32.63 32.63 0 0 0-32.59 32.59v45z"/><rect class="cls-20" x="263.99" y="76.41" width="11.66" height="16.92" rx="3.71" ry="3.71"/><circle class="cls-20" cx="269.86" cy="62.82" r="23.11"/><circle class="cls-20" cx="246.65" cy="66.13" r="4.45"/><circle class="cls-20" cx="293.28" cy="66.13" r="4.45"/><path class="cls-9" d="M269.82 75.24a3.7 3.7 0 0 1-3.7-3.7.45.45 0 0 1 .9 0 2.79 2.79 0 1 0 5.59 0 .45.45 0 0 1 .9 0 3.7 3.7 0 0 1-3.69 3.7z"/><path class="cls-21" d="M269.82 42.57a23.71 23.71 0 0 1 23.37 19.7 23.71 23.71 0 1 0-46.73 0 23.71 23.71 0 0 1 23.36-19.7z"/><rect class="cls-21" x="265.84" y="34.52" width="24.97" height="13.54" rx="4.31" ry="4.31"/><rect class="cls-11" x="258.28" y="61.89" width="2.11" height="2.11" rx=".67" ry=".67"/><rect class="cls-11" x="279.33" y="61.89" width="2.11" height="2.11" rx=".67" ry=".67"/></g><g class="cls-22"><circle class="cls-6" cx="131.7" cy="322.76" r="57.64"/><path class="cls-23" d="M108.03 304.85h47.33v54.14h-47.33z"/><rect class="cls-24" x="105.79" y="334.58" width="52.33" height="66.88" rx="16.66" ry="16.66"/><path class="cls-24" d="M100.55 414.32v-45a25.06 25.06 0 0 1 25-25H140a25.06 25.06 0 0 1 25 25v45h7.56v-45A32.63 32.63 0 0 0 140 336.74h-14.42A32.63 32.63 0 0 0 93 369.34v45z"/><rect class="cls-8" x="125.83" y="325.06" width="11.66" height="16.92" rx="3.71" ry="3.71"/><circle class="cls-8" cx="131.7" cy="311.47" r="23.11"/><circle class="cls-8" cx="108.49" cy="314.78" r="4.45"/><circle class="cls-8" cx="155.12" cy="314.78" r="4.45"/><path class="cls-9" d="M131.65 323.89a3.7 3.7 0 0 1-3.7-3.7.45.45 0 1 1 .9 0 2.79 2.79 0 0 0 5.59 0 .45.45 0 1 1 .9 0 3.7 3.7 0 0 1-3.69 3.7z"/><path class="cls-23" d="M131.65 291.22a23.71 23.71 0 0 1 23.35 19.7 23.71 23.71 0 1 0-46.73 0 23.71 23.71 0 0 1 23.38-19.7z"/><rect class="cls-11" x="123.12" y="310.54" width="2.11" height="2.11" rx=".67" ry=".67"/><rect class="cls-11" x="138.16" y="310.54" width="2.11" height="2.11" rx=".67" ry=".67"/><path class="cls-8" d="M131.65 347.04l-5.03-7.96 9.92.23-4.89 7.73z"/><path class="cls-23" d="M152 299.51l-4.41-6.82-6.42-4.34-4.35-1.29a11.2 11.2 0 0 0-1.59 1.72v-2.19l-.39-.12h-7.32l-8.42 3.31-7.6 9.22a14.61 14.61 0 0 0 21.61-3.59 11.13 11.13 0 0 0 19.89 6.81z"/></g><g class="cls-25"><circle class="cls-26" cx="69.28" cy="202.83" r="57.64"/><path class="cls-21" d="M45.61 184.91h47.33v54.14H45.61z"/><rect class="cls-27" x="43.37" y="214.64" width="52.33" height="66.88" rx="16.66" ry="16.66"/><path class="cls-27" d="M38.13 294.39v-45a25.06 25.06 0 0 1 25-25h14.43a25.06 25.06 0 0 1 25 25v45h7.56v-45a32.63 32.63 0 0 0-32.59-32.59H63.16a32.63 32.63 0 0 0-32.6 32.6v45z"/><rect class="cls-20" x="63.4" y="205.12" width="11.66" height="16.92" rx="3.71" ry="3.71"/><circle class="cls-20" cx="69.27" cy="191.53" r="23.11"/><circle class="cls-20" cx="46.07" cy="194.84" r="4.45"/><circle class="cls-20" cx="92.69" cy="194.84" r="4.45"/><path class="cls-9" d="M69.23 204a3.7 3.7 0 0 1-3.7-3.7.45.45 0 0 1 .9 0 2.79 2.79 0 1 0 5.59 0 .45.45 0 0 1 .9 0 3.7 3.7 0 0 1-3.69 3.7z"/><path class="cls-21" d="M69.23 171.28A23.71 23.71 0 0 1 92.6 191a23.71 23.71 0 1 0-46.73 0 23.71 23.71 0 0 1 23.36-19.72z"/><rect class="cls-11" x="60.7" y="190.61" width="2.11" height="2.11" rx=".67" ry=".67"/><rect class="cls-11" x="75.74" y="190.61" width="2.11" height="2.11" rx=".67" ry=".67"/><path class="cls-20" d="M69.23 227.1l-5.03-7.96 9.92.24-4.89 7.72z"/><path class="cls-21" d="M89.62 179.58l-4.41-6.82-6.42-4.34-4.35-1.29a11.2 11.2 0 0 0-1.59 1.72v-2.19l-.39-.12h-7.3l-8.42 3.31-7.66 9.21a14.61 14.61 0 0 0 21.61-3.59 11.13 11.13 0 0 0 19.92 6.81z"/></g><g class="cls-28"><circle class="cls-1" cx="202.01" cy="202.83" r="57.64"/><rect class="cls-15" x="176.1" y="214.64" width="52.33" height="66.88" rx="16.66" ry="16.66"/><path class="cls-15" d="M170.85 294.39v-45a25.06 25.06 0 0 1 25-25h14.41a25.06 25.06 0 0 1 25 25v45h7.56v-45a32.63 32.63 0 0 0-32.59-32.59h-14.34a32.63 32.63 0 0 0-32.59 32.59v45z"/><rect class="cls-20" x="196.13" y="205.12" width="11.66" height="16.92" rx="3.71" ry="3.71"/><circle class="cls-20" cx="201.95" cy="191.53" r="23.11"/><circle class="cls-20" cx="178.8" cy="194.84" r="4.45"/><circle class="cls-20" cx="225.42" cy="194.84" r="4.45"/><ellipse class="cls-29" cx="201.95" cy="208.51" rx="11.36" ry="12.78"/><path class="cls-30" d="M205.21 200.26a3.25 3.25 0 1 1-6.49 0z"/><path class="cls-9" d="M202 204a3.7 3.7 0 0 1-3.7-3.7v-.45h7.39v.45A3.7 3.7 0 0 1 202 204zm-2.76-3.25a2.8 2.8 0 0 0 5.52 0z"/><path class="cls-21" d="M202 171.28A23.71 23.71 0 0 1 225.32 191a23.71 23.71 0 1 0-46.73 0A23.71 23.71 0 0 1 202 171.28z"/><rect class="cls-21" x="190.12" y="164.44" width="23.66" height="12.03" rx="3.83" ry="3.83"/><path class="cls-29" d="M202 212c10.86 0 19.87-4.57 21.64-13.34a15.9 15.9 0 0 1 .32 3.15c0 10.27-9.83 23.1-22 23.1s-22-12.83-22-23.1a15.9 15.9 0 0 1 .32-3.15c1.8 8.76 10.81 13.34 21.72 13.34z"/><rect class="cls-11" x="190.42" y="190.61" width="2.11" height="2.11" rx=".67" ry=".67"/><rect class="cls-11" x="211.48" y="190.61" width="2.11" height="2.11" rx=".67" ry=".67"/></g><g class="cls-31"><circle class="cls-32" cx="265.1" cy="317.65" r="57.64"/><rect class="cls-33" x="239.19" y="329.46" width="52.33" height="66.88" rx="16.66" ry="16.66"/><path class="cls-33" d="M233.95 409.21v-45a25.06 25.06 0 0 1 25-25h14.41a25.06 25.06 0 0 1 25 25v45H306v-45a32.63 32.63 0 0 0-32.59-32.59H259a32.63 32.63 0 0 0-32.59 32.59v45z"/><rect class="cls-20" x="259.22" y="319.94" width="11.66" height="16.92" rx="3.71" ry="3.71"/><circle class="cls-34" cx="265.04" cy="306.35" r="23.11"/><circle class="cls-34" cx="241.89" cy="309.66" r="4.45"/><circle class="cls-34" cx="288.52" cy="309.66" r="4.45"/><path class="cls-30" d="M268.3 316.28a3.25 3.25 0 1 1-6.49 0z"/><path class="cls-9" d="M265.05 320a3.7 3.7 0 0 1-3.7-3.7v-.45h7.39v.45a3.7 3.7 0 0 1-3.69 3.7zm-2.76-3.25a2.8 2.8 0 0 0 5.52 0z"/><path class="cls-35" d="M265 286.11a23.71 23.71 0 0 1 23.37 19.7 23.71 23.71 0 1 0-46.73 0 23.71 23.71 0 0 1 23.36-19.7z"/><path class="cls-35" d="M280.86 294h-11.63c-3.31 0-10.83-3.32-10.83-7.37h2.71c0-4.05 4.81-7.37 8.12-7.37h11.63c3.31 0 6 3.32 6 7.37.02 4.05-2.69 7.37-6 7.37zM265 326.81c10.86 0 19.87-4.57 21.64-13.34a15.9 15.9 0 0 1 .32 3.15c0 10.27-9.83 23.1-22 23.1s-22-12.83-22-23.1a15.9 15.9 0 0 1 .32-3.15c1.89 8.77 10.91 13.34 21.72 13.34z"/><rect class="cls-11" x="253.52" y="305.43" width="2.11" height="2.11" rx=".67" ry=".67"/><rect class="cls-11" x="274.57" y="305.43" width="2.11" height="2.11" rx=".67" ry=".67"/><rect class="cls-35" x="253.92" y="314.65" width="6.82" height="17.45" rx="2.17" ry="2.17"/><rect class="cls-35" x="269.36" y="315.83" width="6.82" height="17.45" rx="2.17" ry="2.17"/><rect class="cls-35" x="260.73" y="322.91" width="8.63" height="17.45" rx="2.75" ry="2.75"/><path class="cls-35" d="M276 317.19c-1.31-3.83-5.72-6.64-11-6.64s-9.65 2.82-11 6.64zm-11.05 38.27l-18.14-27.06h36.46l-18.32 27.06z"/></g><circle class="cls-36" cx="111.23" cy="162.49" r="19.61"/><path class="cls-37" transform="rotate(-135 105.802 167.012)" d="M100.79 165.62h10.03v2.77h-10.03z"/><path class="cls-37" transform="rotate(-45 114.87 163.08)" d="M105.67 161.69h18.39v2.77h-18.39z"/><circle class="cls-36" cx="245.43" cy="162.49" r="19.61"/><path class="cls-37" transform="rotate(-135 240 167.01)" d="M234.99 165.62h10.03v2.77h-10.03z"/><path class="cls-37" transform="rotate(-45 249.067 163.073)" d="M239.87 161.69h18.39v2.77h-18.39z"/><circle class="cls-36" cx="316.35" cy="285.82" r="19.61"/><path class="cls-37" transform="rotate(-135 310.92 294.344)" d="M305.9 292.96h10.03v2.77H305.9z"/><path class="cls-37" transform="rotate(-45 319.981 290.41)" d="M310.79 289.02h18.39v2.77h-18.39z"/></g></svg>