<svg id="Layer_1" data-name="Layer 1" xmlns="http://www.w3.org/2000/svg" viewBox="0 0 383.25 383.25"><defs><style>.cls-1,.cls-6{fill:none}.cls-2{clip-path:url(#clip-path)}.cls-3{fill:#e2e290}.cls-4{fill:#ee8622}.cls-5{fill:#9b674e}.cls-6{stroke:#171615;stroke-linecap:round;stroke-miterlimit:10;stroke-width:3px}.cls-7{fill:#3f2a2a}.cls-8{fill:#21231b}</style><clipPath id="clip-path"><circle class="cls-1" cx="191.63" cy="191.63" r="191.63"/></clipPath></defs><title>Artboard 1</title><g class="cls-2"><circle class="cls-3" cx="191.63" cy="191.63" r="191.63"/><rect class="cls-4" x="105.47" y="230.9" width="173.97" height="222.35" rx="80" ry="80"/><path class="cls-4" d="M88 496V346.46a83.31 83.31 0 0 1 83.21-83.21h47.89a83.31 83.31 0 0 1 83.21 83.21V496h25.14V346.46a108.48 108.48 0 0 0-108.3-108.36h-47.89A108.48 108.48 0 0 0 62.91 346.46V496z"/><rect class="cls-5" x="172.08" y="199.25" width="38.75" height="56.25" rx="19.37" ry="19.37"/><circle class="cls-5" cx="191.6" cy="154.08" r="76.82"/><circle class="cls-5" cx="114.46" cy="165.08" r="14.79"/><circle class="cls-5" cx="269.46" cy="165.08" r="14.79"/><path class="cls-6" d="M202.25 183.08a10.79 10.79 0 1 1-21.58 0"/><path class="cls-7" d="M191.46 86.76a78.83 78.83 0 0 1 77.68 65.49 78.83 78.83 0 1 0-155.36 0 78.83 78.83 0 0 1 77.68-65.49z"/><rect class="cls-7" x="178.25" y="60" width="83" height="45" rx="20" ry="20"/><rect class="cls-8" x="153.1" y="151" width="7" height="7" rx="3.5" ry="3.5"/><rect class="cls-8" x="223.1" y="151" width="7" height="7" rx="3.5" ry="3.5"/></g></svg>